<?xml version="1.0" encoding="UTF-8"?>
<svg width="36px" height="36px" viewBox="0 0 36 36" version="1.1" xmlns="http://www.w3.org/2000/svg" xmlns:xlink="http://www.w3.org/1999/xlink">
    <title>ic_live_currency</title>
    <defs>
        <circle id="path-1" cx="18" cy="18" r="16"></circle>
        <filter x="-6.2%" y="-3.1%" width="112.5%" height="112.5%" filterUnits="objectBoundingBox" id="filter-2">
            <feOffset dx="0" dy="1" in="SourceAlpha" result="shadowOffsetOuter1"></feOffset>
            <feGaussianBlur stdDeviation="0.5" in="shadowOffsetOuter1" result="shadowBlurOuter1"></feGaussianBlur>
            <feColorMatrix values="0 0 0 0 0.199299859   0 0 0 0 0.0787742712   0 0 0 0 0.548804242  0 0 0 1 0" type="matrix" in="shadowBlurOuter1"></feColorMatrix>
        </filter>
        <filter x="-7.8%" y="-4.7%" width="115.6%" height="115.6%" filterUnits="objectBoundingBox" id="filter-3">
            <feGaussianBlur stdDeviation="1" in="SourceAlpha" result="shadowBlurInner1"></feGaussianBlur>
            <feOffset dx="0" dy="1" in="shadowBlurInner1" result="shadowOffsetInner1"></feOffset>
            <feComposite in="shadowOffsetInner1" in2="SourceAlpha" operator="arithmetic" k2="-1" k3="1" result="shadowInnerInner1"></feComposite>
            <feColorMatrix values="0 0 0 0 1   0 0 0 0 1   0 0 0 0 1  0 0 0 0.5 0" type="matrix" in="shadowInnerInner1"></feColorMatrix>
        </filter>
        <linearGradient x1="50%" y1="0%" x2="50%" y2="100%" id="linearGradient-4">
            <stop stop-color="#B48BFF" offset="0%"></stop>
            <stop stop-color="#8E6FFF" offset="100%"></stop>
        </linearGradient>
        <circle id="path-5" cx="18" cy="18" r="13.7142857"></circle>
        <filter x="-7.3%" y="-7.3%" width="114.6%" height="114.6%" filterUnits="objectBoundingBox" id="filter-6">
            <feGaussianBlur stdDeviation="1.5" in="SourceAlpha" result="shadowBlurInner1"></feGaussianBlur>
            <feOffset dx="0" dy="1" in="shadowBlurInner1" result="shadowOffsetInner1"></feOffset>
            <feComposite in="shadowOffsetInner1" in2="SourceAlpha" operator="arithmetic" k2="-1" k3="1" result="shadowInnerInner1"></feComposite>
            <feColorMatrix values="0 0 0 0 0.596078431   0 0 0 0 0.466666667   0 0 0 0 0.91372549  0 0 0 1 0" type="matrix" in="shadowInnerInner1"></feColorMatrix>
        </filter>
        <linearGradient x1="50%" y1="0%" x2="50%" y2="100%" id="linearGradient-7">
            <stop stop-color="#9C8CFF" offset="0%"></stop>
            <stop stop-color="#7258FF" offset="100%"></stop>
        </linearGradient>
        <circle id="path-8" cx="18" cy="18" r="13.7142857"></circle>
        <filter x="-7.3%" y="-7.3%" width="114.6%" height="114.6%" filterUnits="objectBoundingBox" id="filter-9">
            <feGaussianBlur stdDeviation="1.5" in="SourceAlpha" result="shadowBlurInner1"></feGaussianBlur>
            <feOffset dx="0" dy="1" in="shadowBlurInner1" result="shadowOffsetInner1"></feOffset>
            <feComposite in="shadowOffsetInner1" in2="SourceAlpha" operator="arithmetic" k2="-1" k3="1" result="shadowInnerInner1"></feComposite>
            <feColorMatrix values="0 0 0 0 0.424989151   0 0 0 0 0.318049755   0 0 0 0 0.935970583  0 0 0 1 0" type="matrix" in="shadowInnerInner1"></feColorMatrix>
        </filter>
        <linearGradient x1="50%" y1="0%" x2="54.2198181%" y2="79.9368117%" id="linearGradient-10">
            <stop stop-color="#FFFFFF" offset="0%"></stop>
            <stop stop-color="#3B72C5" stop-opacity="0" offset="100%"></stop>
        </linearGradient>
        <path d="M12.6247086,12.6186694 C12.5110445,12.7044796 12.3784364,12.7473848 12.2268842,12.7473848 C12.0374441,12.7473848 11.8740519,12.6782599 11.7367077,12.5400101 C11.5993636,12.4017602 11.5306915,12.2372907 11.5306915,12.0466013 C11.5306915,11.836843 11.6112036,11.6604553 11.7722278,11.5174382 C11.7816998,11.5079038 11.7911718,11.5007529 11.8006438,11.4959857 C11.8101158,11.4912185 11.8195878,11.4840676 11.8290598,11.4745331 L11.8432678,11.4602314 C12.1084841,11.2790765 12.3547564,11.064551 12.5820846,10.8166548 C12.8094128,10.5687586 13.008325,10.2994098 13.1788212,10.0086085 C13.3493173,9.71780721 13.4819255,9.40793697 13.5766456,9.07899778 C13.6713657,8.7500586 13.7187257,8.40920133 13.7187257,8.05642599 C13.7187257,7.34134081 13.5387575,6.68822968 13.1788212,6.09709261 C12.8188848,5.50595553 12.3689644,5.01969761 11.8290598,4.63831884 C11.6301476,4.4953018 11.5306915,4.30461242 11.5306915,4.0662507 C11.5306915,3.87556132 11.5993636,3.71109173 11.7367077,3.57284193 C11.8740519,3.43459212 12.037444,3.36546722 12.2268842,3.36546722 C12.3879084,3.36546722 12.5299885,3.4179068 12.6531247,3.52278595 C13.003589,3.77068215 13.3303733,4.05909984 13.6334776,4.38803901 C13.9365819,4.71697819 14.1970622,5.07452078 14.4149184,5.46066678 C14.6327746,5.84681278 14.8032708,6.25917857 14.9264069,6.69776414 C15.0495431,7.1363497 15.1111111,7.58923698 15.1111111,8.05642597 C15.1111111,8.53314942 15.0495431,8.99080394 14.9264069,9.42938951 C14.8032708,9.86797509 14.6304066,10.2827245 14.4078144,10.6736377 C14.1852222,11.0645509 13.9223739,11.4244772 13.6192696,11.7534163 C13.3161653,12.0823555 12.984645,12.3707732 12.6247086,12.6186694 L12.6247086,12.6186694 Z M11.8290598,6.19720454 C12.027972,6.47370414 12.1866282,6.75258736 12.3050283,7.03385419 C12.4234284,7.31512103 12.4826285,7.65597829 12.4826285,8.05642599 C12.4826285,8.43780475 12.4210604,8.78104563 12.2979243,9.08614865 C12.1747882,9.39125167 12.0185,9.66775127 11.8290598,9.91564745 C11.7532838,10.0205266 11.6727717,10.1134877 11.5875236,10.1945307 C11.5022755,10.2755737 11.3933474,10.3160952 11.2607393,10.3160952 C11.0902431,10.3160952 10.945795,10.2541211 10.8273948,10.130173 C10.7089947,10.0062249 10.6497947,9.85844065 10.6497947,9.68682021 C10.6497947,9.61054445 10.6640027,9.5342687 10.6924187,9.45799295 L10.6782107,9.45799295 C10.7255708,9.35311379 10.7824028,9.25300186 10.8487069,9.15765717 C10.9150109,9.06231248 10.978947,8.96458418 11.0405151,8.86447225 C11.1020831,8.76436033 11.1541792,8.6499467 11.1968032,8.52123136 C11.2394272,8.39251602 11.2607393,8.2375809 11.2607393,8.056426 C11.2607393,7.88480556 11.2394272,7.73463767 11.1968032,7.60592235 C11.1541792,7.47720702 11.1020831,7.36040977 11.0405151,7.2555306 C10.978947,7.15065143 10.9150109,7.05053951 10.8487069,6.95519483 C10.7824028,6.85985015 10.7303068,6.75973823 10.6924187,6.65485906 C10.6640027,6.58811777 10.6497947,6.51184202 10.6497947,6.4260318 C10.6497947,6.25441135 10.7089947,6.10662709 10.8273948,5.98267899 C10.945795,5.8587309 11.0902431,5.79675685 11.2607393,5.79675685 C11.3933474,5.79675685 11.5022755,5.83727835 11.5875236,5.91832133 C11.6727717,5.99936432 11.7532838,6.09232539 11.8290598,6.19720455 L11.8290598,6.19720454 Z M7.23987125,14.6924164 C6.75679877,14.2538309 6.24531026,13.7961763 5.70540572,13.3194529 C5.16550118,12.8427294 4.66348467,12.4041439 4.19935621,12.0036962 C3.65945167,11.5460417 3.11954713,11.0931544 2.57964259,10.6450343 C2.47545049,10.6545688 2.37125838,10.659336 2.26706628,10.659336 C2.18181819,10.6688705 2.0918341,10.6736377 1.99711401,10.6736377 L1.75557777,10.6736377 C1.49983351,10.6736377 1.2914493,10.5949784 1.13042513,10.4376596 C0.969400971,10.2803409 0.888888889,10.0920351 0.888888889,9.87274233 L0.888888889,6.26871305 L0.903096902,6.26871305 L0.888888889,6.25441134 C0.888888889,5.98744621 0.971768973,5.76815342 1.13752914,5.59653298 C1.30328931,5.42491254 1.50930552,5.33910231 1.75557777,5.33910231 L2.56543458,5.33910231 C3.43685945,4.59541373 4.22777224,3.9280009 4.93817294,3.33686381 C5.24127724,3.07943315 5.53964554,2.82915334 5.83327785,2.58602438 C6.12691015,2.34289543 6.39212641,2.12121902 6.62892664,1.92099517 C6.86572687,1.72077131 7.06463907,1.5539181 7.22566324,1.42043554 C7.3866874,1.28695298 7.4861435,1.20590999 7.52403153,1.17730658 C7.80819181,0.967548259 8.03788804,0.87220357 8.21312022,0.891272506 C8.3883524,0.910341442 8.52569653,0.996151664 8.62515263,1.14870317 C8.72460873,1.30125468 8.7932808,1.48717682 8.83116884,1.70646961 C8.86905689,1.92576239 8.8880009,2.12598624 8.8880009,2.30714115 L8.8880009,13.8486159 L8.8880009,13.891521 C8.8880009,14.0726759 8.85484886,14.2657489 8.78854479,14.47074 C8.72224072,14.6757311 8.62041662,14.8378171 8.48307249,14.9569979 C8.34572836,15.0761788 8.17286418,15.1262348 7.96447997,15.1071658 C7.75609575,15.0880969 7.51455951,14.9498471 7.23987125,14.6924164 L7.23987125,14.6924164 Z" id="path-11"></path>
        <filter x="-14.1%" y="-7.0%" width="128.1%" height="128.1%" filterUnits="objectBoundingBox" id="filter-12">
            <feOffset dx="0" dy="1" in="SourceAlpha" result="shadowOffsetOuter1"></feOffset>
            <feGaussianBlur stdDeviation="0.5" in="shadowOffsetOuter1" result="shadowBlurOuter1"></feGaussianBlur>
            <feColorMatrix values="0 0 0 0 0.280896138   0 0 0 0 0.128809266   0 0 0 0 0.795991759  0 0 0 1 0" type="matrix" in="shadowBlurOuter1"></feColorMatrix>
        </filter>
        <filter x="-14.1%" y="-7.0%" width="128.1%" height="128.1%" filterUnits="objectBoundingBox" id="filter-13">
            <feGaussianBlur stdDeviation="0.5" in="SourceAlpha" result="shadowBlurInner1"></feGaussianBlur>
            <feOffset dx="0" dy="1" in="shadowBlurInner1" result="shadowOffsetInner1"></feOffset>
            <feComposite in="shadowOffsetInner1" in2="SourceAlpha" operator="arithmetic" k2="-1" k3="1" result="shadowInnerInner1"></feComposite>
            <feColorMatrix values="0 0 0 0 0.799158208   0 0 0 0 0.770157084   0 0 0 0 1  0 0 0 1 0" type="matrix" in="shadowInnerInner1"></feColorMatrix>
        </filter>
    </defs>
    <g id="H5版本（繁体）" stroke="none" stroke-width="1" fill="none" fill-rule="evenodd">
        <g id="H5游戏界面-开始游戏" transform="translate(-319.000000, -216.000000)">
            <g id="编组" transform="translate(269.000000, 132.000000)">
                <g transform="translate(0.000000, 84.000000)" id="-mockplus-">
                    <g transform="translate(50.000000, 0.000000)" id="编组">
                        <g id="椭圆形">
                            <use fill="black" fill-opacity="1" filter="url(#filter-2)" xlink:href="#path-1"></use>
                            <use fill="#D7D1FF" fill-rule="evenodd" xlink:href="#path-1"></use>
                            <use fill="black" fill-opacity="1" filter="url(#filter-3)" xlink:href="#path-1"></use>
                        </g>
                        <g id="椭圆形备份">
                            <use fill="url(#linearGradient-4)" fill-rule="evenodd" xlink:href="#path-5"></use>
                            <use fill="black" fill-opacity="1" filter="url(#filter-6)" xlink:href="#path-5"></use>
                        </g>
                        <g id="椭圆形备份">
                            <use fill="url(#linearGradient-7)" fill-rule="evenodd" xlink:href="#path-8"></use>
                            <use fill="black" fill-opacity="1" filter="url(#filter-9)" xlink:href="#path-8"></use>
                        </g>
                        <circle id="椭圆形备份-2" fill="url(#linearGradient-10)" opacity="0.323654901" cx="18" cy="16.8571429" r="10.2857143"></circle>
                        <ellipse id="椭圆形" fill="#D4C6FF" transform="translate(10.274156, 11.340623) rotate(35.000000) translate(-10.274156, -11.340623) " cx="10.2741564" cy="11.3406232" rx="1.14285714" ry="2.28571429"></ellipse>
                        <g id="-mockplus-" transform="translate(10.000000, 10.000000)" fill-rule="nonzero">
                            <g id="编组">
                                <rect id="矩形" fill="#000000" opacity="0" x="0" y="0" width="16" height="16"></rect>
                                <g id="形状">
                                    <use fill="black" fill-opacity="1" filter="url(#filter-12)" xlink:href="#path-11"></use>
                                    <use fill="#F1EEFF" xlink:href="#path-11"></use>
                                    <use fill="black" fill-opacity="1" filter="url(#filter-13)" xlink:href="#path-11"></use>
                                </g>
                            </g>
                        </g>
                    </g>
                </g>
            </g>
        </g>
    </g>
</svg>