<?xml version="1.0" encoding="UTF-8"?>
<svg width="36px" height="36px" viewBox="0 0 36 36" version="1.1" xmlns="http://www.w3.org/2000/svg" xmlns:xlink="http://www.w3.org/1999/xlink">
    <title>ic_live_voice</title>
    <defs>
        <circle id="path-1" cx="16" cy="16" r="16"></circle>
        <filter x="-6.2%" y="-3.1%" width="112.5%" height="112.5%" filterUnits="objectBoundingBox" id="filter-2">
            <feOffset dx="0" dy="1" in="SourceAlpha" result="shadowOffsetOuter1"></feOffset>
            <feGaussianBlur stdDeviation="0.5" in="shadowOffsetOuter1" result="shadowBlurOuter1"></feGaussianBlur>
            <feColorMatrix values="0 0 0 0 0.307169116   0 0 0 0 0.0787742712   0 0 0 0 0.548804242  0 0 0 1 0" type="matrix" in="shadowBlurOuter1"></feColorMatrix>
        </filter>
        <filter x="-7.8%" y="-4.7%" width="115.6%" height="115.6%" filterUnits="objectBoundingBox" id="filter-3">
            <feGaussianBlur stdDeviation="1" in="SourceAlpha" result="shadowBlurInner1"></feGaussianBlur>
            <feOffset dx="0" dy="1" in="shadowBlurInner1" result="shadowOffsetInner1"></feOffset>
            <feComposite in="shadowOffsetInner1" in2="SourceAlpha" operator="arithmetic" k2="-1" k3="1" result="shadowInnerInner1"></feComposite>
            <feColorMatrix values="0 0 0 0 1   0 0 0 0 1   0 0 0 0 1  0 0 0 0.5 0" type="matrix" in="shadowInnerInner1"></feColorMatrix>
        </filter>
        <linearGradient x1="50%" y1="0%" x2="50%" y2="100%" id="linearGradient-4">
            <stop stop-color="#9C8CFF" offset="0%"></stop>
            <stop stop-color="#7258FF" offset="100%"></stop>
        </linearGradient>
        <circle id="path-5" cx="16" cy="16" r="13.7142857"></circle>
        <filter x="-7.3%" y="-7.3%" width="114.6%" height="114.6%" filterUnits="objectBoundingBox" id="filter-6">
            <feGaussianBlur stdDeviation="1.5" in="SourceAlpha" result="shadowBlurInner1"></feGaussianBlur>
            <feOffset dx="0" dy="1" in="shadowBlurInner1" result="shadowOffsetInner1"></feOffset>
            <feComposite in="shadowOffsetInner1" in2="SourceAlpha" operator="arithmetic" k2="-1" k3="1" result="shadowInnerInner1"></feComposite>
            <feColorMatrix values="0 0 0 0 0.424989151   0 0 0 0 0.318049755   0 0 0 0 0.935970583  0 0 0 1 0" type="matrix" in="shadowInnerInner1"></feColorMatrix>
        </filter>
        <linearGradient x1="50%" y1="0%" x2="54.2198181%" y2="79.9368117%" id="linearGradient-7">
            <stop stop-color="#FFFFFF" offset="0%"></stop>
            <stop stop-color="#3B72C5" stop-opacity="0" offset="100%"></stop>
        </linearGradient>
        <path d="M14.2027972,14.1960031 C14.0749251,14.2925396 13.9257409,14.3408079 13.7552448,14.3408079 C13.5421246,14.3408079 13.3583084,14.2630423 13.2037962,14.1075113 C13.0492841,13.9519803 12.972028,13.766952 12.972028,13.5524264 C12.972028,13.3164483 13.0626041,13.1180122 13.2437563,12.957118 C13.2544123,12.9463917 13.2650683,12.938347 13.2757243,12.9329839 C13.2863803,12.9276208 13.2970363,12.9195761 13.3076923,12.9088498 L13.3236763,12.8927604 C13.6220446,12.6889611 13.8991009,12.4476198 14.1548451,12.1687366 C14.4105894,11.8898534 14.6343656,11.586836 14.8261738,11.2596846 C15.017982,10.9325331 15.1671662,10.5839291 15.2737263,10.2138725 C15.3802864,9.84381592 15.4335664,9.4603515 15.4335664,9.06347924 C15.4335664,8.25900841 15.2311022,7.52425839 14.8261738,6.85922918 C14.4212454,6.19419997 13.9150849,5.64715981 13.3076923,5.2181087 C13.0839161,5.05721453 12.972028,4.84268898 12.972028,4.57453204 C12.972028,4.36000649 13.049284,4.1749782 13.2037962,4.01944717 C13.3583084,3.86391613 13.5421245,3.78615062 13.7552448,3.78615062 C13.9363969,3.78615062 14.0962371,3.84514515 14.2347652,3.9631342 C14.6290376,4.24201742 14.99667,4.56648732 15.3376623,4.93654389 C15.6786547,5.30660046 15.971695,5.70883587 16.2167832,6.14325013 C16.4618715,6.57766438 16.6536797,7.04157589 16.7922078,7.53498465 C16.9307359,8.02839342 17,8.53789161 17,9.06347922 C17,9.5997931 16.9307359,10.1146544 16.7922078,10.6080632 C16.6536797,11.101472 16.4592075,11.5680651 16.2087912,12.0078424 C15.958375,12.4476198 15.6626707,12.8525368 15.3216783,13.2225934 C14.980686,13.59265 14.6077256,13.9171199 14.2027972,14.1960031 L14.2027972,14.1960031 Z M13.3076923,6.9718551 C13.5314685,7.28291716 13.7099567,7.59666078 13.8431569,7.91308597 C13.976357,8.22951116 14.042957,8.61297558 14.042957,9.06347924 C14.042957,9.49253034 13.973693,9.87867634 13.8351648,10.2219172 C13.6966367,10.5651581 13.5208125,10.8762202 13.3076923,11.1551034 C13.2224442,11.2730924 13.1318681,11.3776736 13.035964,11.468847 C12.94006,11.5600204 12.8175158,11.605607 12.6683317,11.605607 C12.4765235,11.605607 12.3140193,11.5358862 12.1808192,11.3964446 C12.0476191,11.257003 11.981019,11.0907457 11.981019,10.8976727 C11.981019,10.8118625 11.997003,10.7260523 12.0289711,10.6402421 L12.012987,10.6402421 C12.0662671,10.522253 12.1302032,10.4096271 12.2047952,10.3023643 C12.2793873,10.1951015 12.3513154,10.0851572 12.4205794,9.97253129 C12.4898435,9.85990537 12.5484516,9.73119004 12.5964036,9.58638528 C12.6443556,9.44158053 12.6683317,9.26727852 12.6683317,9.06347925 C12.6683317,8.87040625 12.6443556,8.70146738 12.5964036,8.55666264 C12.5484516,8.4118579 12.4898435,8.28046099 12.4205794,8.16247193 C12.3513154,8.04448286 12.2793873,7.93185695 12.2047952,7.82459418 C12.1302032,7.71733142 12.0715951,7.60470551 12.0289711,7.48671644 C11.997003,7.4116325 11.981019,7.32582227 11.981019,7.22928577 C11.981019,7.03621277 12.0476191,6.86995547 12.1808192,6.73051387 C12.3140193,6.59107226 12.4765235,6.52135146 12.6683317,6.52135146 C12.8175158,6.52135146 12.94006,6.56693814 13.035964,6.6581115 C13.1318681,6.74928486 13.2224442,6.85386607 13.3076923,6.97185512 L13.3076923,6.9718551 Z M8.14485515,16.5289685 C7.60139861,16.0355597 7.02597404,15.5206984 6.41858143,14.9843845 C5.81118882,14.4480706 5.24642026,13.9546619 4.72427574,13.5041582 C4.11688313,12.9892969 3.50949052,12.4797987 2.90209791,11.9756636 C2.7848818,11.9863899 2.66766568,11.991753 2.55044957,11.991753 C2.45454547,12.0024793 2.35331337,12.0078425 2.24675326,12.0078425 L1.97502499,12.0078425 C1.6873127,12.0078425 1.45288046,11.9193507 1.27172828,11.7423671 C1.09057609,11.5653835 1,11.3535395 1,11.1068351 L1,7.05230218 L1.01598401,7.05230218 L1,7.03621276 C1,6.73587699 1.09324009,6.4891726 1.27972028,6.2960996 C1.46620047,6.1030266 1.69796871,6.0064901 1.97502499,6.0064901 L2.8861139,6.0064901 C3.86646688,5.16984045 4.75624377,4.41900101 5.55544456,3.75397179 C5.8964369,3.46436229 6.23210124,3.18279751 6.56243758,2.90927743 C6.89277392,2.63575736 7.19114221,2.3863714 7.45754247,2.16111956 C7.72394273,1.93586772 7.94771896,1.74815786 8.12887114,1.59798998 C8.31002332,1.4478221 8.42191143,1.35664874 8.46453547,1.3244699 C8.78421579,1.08849179 9.04262405,0.981229016 9.23976025,1.00268157 C9.43689644,1.02413412 9.5914086,1.12067062 9.70329671,1.29229107 C9.81518482,1.46391151 9.8924409,1.67307393 9.93506495,1.91977831 C9.977689,2.16648269 9.99900101,2.39173452 9.99900101,2.59553379 L9.99900101,15.5796929 L9.99900101,15.6279611 C9.99900101,15.8317604 9.96170497,16.0489675 9.88711289,16.2795825 C9.81252081,16.5101975 9.6979687,16.6925442 9.54345655,16.8266227 C9.3889444,16.9607011 9.19447221,17.0170141 8.96003996,16.9955615 C8.72560772,16.974109 8.45387945,16.8185779 8.14485515,16.5289685 L8.14485515,16.5289685 Z" id="path-8"></path>
        <filter x="-12.5%" y="-6.2%" width="125.0%" height="125.0%" filterUnits="objectBoundingBox" id="filter-9">
            <feOffset dx="0" dy="1" in="SourceAlpha" result="shadowOffsetOuter1"></feOffset>
            <feGaussianBlur stdDeviation="0.5" in="shadowOffsetOuter1" result="shadowBlurOuter1"></feGaussianBlur>
            <feColorMatrix values="0 0 0 0 0.280896138   0 0 0 0 0.128809266   0 0 0 0 0.795991759  0 0 0 1 0" type="matrix" in="shadowBlurOuter1"></feColorMatrix>
        </filter>
        <filter x="-12.5%" y="-6.2%" width="125.0%" height="125.0%" filterUnits="objectBoundingBox" id="filter-10">
            <feGaussianBlur stdDeviation="0.5" in="SourceAlpha" result="shadowBlurInner1"></feGaussianBlur>
            <feOffset dx="0" dy="1" in="shadowBlurInner1" result="shadowOffsetInner1"></feOffset>
            <feComposite in="shadowOffsetInner1" in2="SourceAlpha" operator="arithmetic" k2="-1" k3="1" result="shadowInnerInner1"></feComposite>
            <feColorMatrix values="0 0 0 0 0.799158208   0 0 0 0 0.770157084   0 0 0 0 1  0 0 0 1 0" type="matrix" in="shadowInnerInner1"></feColorMatrix>
        </filter>
        <rect id="path-11" x="6" y="17" width="24" height="3" rx="1.5"></rect>
        <filter x="-14.6%" y="-83.3%" width="129.2%" height="333.3%" filterUnits="objectBoundingBox" id="filter-12">
            <feOffset dx="0" dy="1" in="SourceAlpha" result="shadowOffsetOuter1"></feOffset>
            <feGaussianBlur stdDeviation="1" in="shadowOffsetOuter1" result="shadowBlurOuter1"></feGaussianBlur>
            <feColorMatrix values="0 0 0 0 0.388235294   0 0 0 0 0.129411765   0 0 0 0 0.796078431  0 0 0 1 0" type="matrix" in="shadowBlurOuter1"></feColorMatrix>
        </filter>
    </defs>
    <g id="H5版本（繁体）" stroke="none" stroke-width="1" fill="none" fill-rule="evenodd">
        <g id="H5游戏界面-开始游戏" transform="translate(-269.000000, -216.000000)">
            <g id="编组" transform="translate(269.000000, 132.000000)">
                <g transform="translate(0.000000, 84.000000)" id="编组-2">
                    <g id="编组" transform="translate(2.000000, 2.000000)">
                        <g id="椭圆形">
                            <use fill="black" fill-opacity="1" filter="url(#filter-2)" xlink:href="#path-1"></use>
                            <use fill="#C8B1FF" fill-rule="evenodd" xlink:href="#path-1"></use>
                            <use fill="black" fill-opacity="1" filter="url(#filter-3)" xlink:href="#path-1"></use>
                        </g>
                        <g id="椭圆形备份">
                            <use fill="url(#linearGradient-4)" fill-rule="evenodd" xlink:href="#path-5"></use>
                            <use fill="black" fill-opacity="1" filter="url(#filter-6)" xlink:href="#path-5"></use>
                        </g>
                        <circle id="椭圆形备份-2" fill="url(#linearGradient-7)" opacity="0.323654901" cx="16" cy="14.8571429" r="10.2857143"></circle>
                        <ellipse id="椭圆形" fill="#BDDEF8" transform="translate(8.274156, 9.340623) rotate(35.000000) translate(-8.274156, -9.340623) " cx="8.27415638" cy="9.34062323" rx="1.14285714" ry="2.28571429"></ellipse>
                        <g id="-mockplus-" transform="translate(7.000000, 7.000000)" fill-rule="nonzero">
                            <g id="编组">
                                <rect id="矩形" fill="#000000" opacity="0" x="0" y="0" width="18" height="18"></rect>
                                <g id="形状">
                                    <use fill="black" fill-opacity="1" filter="url(#filter-9)" xlink:href="#path-8"></use>
                                    <use fill="#F1EEFF" xlink:href="#path-8"></use>
                                    <use fill="black" fill-opacity="1" filter="url(#filter-10)" xlink:href="#path-8"></use>
                                </g>
                            </g>
                        </g>
                    </g>
                    <g id="矩形" transform="translate(18.000000, 18.500000) rotate(-315.000000) translate(-18.000000, -18.500000) ">
                        <use fill="black" fill-opacity="1" filter="url(#filter-12)" xlink:href="#path-11"></use>
                        <use fill="#FA3860" fill-rule="evenodd" xlink:href="#path-11"></use>
                    </g>
                </g>
            </g>
        </g>
    </g>
</svg>