<?xml version="1.0" encoding="UTF-8"?>
<svg width="15px" height="14px" viewBox="0 0 15 14" version="1.1" xmlns="http://www.w3.org/2000/svg" xmlns:xlink="http://www.w3.org/1999/xlink">
    <title>ic_coin</title>
    <defs>
        <filter x="-28.6%" y="-28.6%" width="157.1%" height="157.1%" filterUnits="objectBoundingBox" id="filter-1">
            <feOffset dx="1" dy="1" in="SourceAlpha" result="shadowOffsetOuter1"></feOffset>
            <feGaussianBlur stdDeviation="0.5" in="shadowOffsetOuter1" result="shadowBlurOuter1"></feGaussianBlur>
            <feColorMatrix values="0 0 0 0 0.168627451   0 0 0 0 0.556862745   0 0 0 0 0.0470588235  0 0 0 0.5 0" type="matrix" in="shadowBlurOuter1" result="shadowMatrixOuter1"></feColorMatrix>
            <feMerge>
                <feMergeNode in="shadowMatrixOuter1"></feMergeNode>
                <feMergeNode in="SourceGraphic"></feMergeNode>
            </feMerge>
        </filter>
    </defs>
    <g id="H5版本（繁体）" stroke="none" stroke-width="1" fill="none" fill-rule="evenodd">
        <g id="H5推币机-兌換" transform="translate(-81.000000, -491.000000)" fill-rule="nonzero">
            <g id="编组-4" transform="translate(0.000000, 214.000000)">
                <g id="普通套餐" transform="translate(16.000000, 164.000000)">
                    <g id="-mockplus-" transform="translate(10.000000, 10.000000)">
                        <g id="-mockplus-" transform="translate(0.000000, 98.000000)">
                            <g id="编组" transform="translate(55.500000, 2.000000)">
                                <g id="ic/integral" transform="translate(0.000000, 3.000000)" filter="url(#filter-1)">
                                    <g id="编组">
                                        <path d="M7,0.5 C8.791075,0.5 10.4159098,1.22974157 11.5930841,2.40691589 C12.7702584,3.58409021 13.5,5.208925 13.5,7 C13.5,8.791075 12.7702584,10.4159098 11.5930841,11.5930841 C10.4159098,12.7702584 8.791075,13.5 7,13.5 C5.208925,13.5 3.58409021,12.7702584 2.40691589,11.5930841 C1.22974157,10.4159098 0.5,8.791075 0.5,7 C0.5,5.208925 1.22974157,3.58409021 2.40691589,2.40691589 C3.58409021,1.22974157 5.208925,0.5 7,0.5 Z" id="路径" stroke="#FFD04C" fill="#F5A623"></path>
                                        <path d="M6.76732944,9.62232215 L4.95780982,10.5736429 C4.71338752,10.7021433 4.41107394,10.6081701 4.28257354,10.3637478 C4.23140401,10.2664175 4.21374667,10.1549335 4.23233509,10.0465547 L4.57792259,8.03162497 C4.60574155,7.86942793 4.55196731,7.70392783 4.43412427,7.58905925 L2.97019214,6.16207811 C2.77245036,5.9693275 2.7684042,5.65277087 2.96115481,5.45502908 C3.03790911,5.37628727 3.13848032,5.32504368 3.24729883,5.30923142 L5.27040327,5.01525714 C5.43325835,4.99159291 5.57404115,4.88930822 5.64687215,4.74173649 L6.55163196,2.90849288 C6.67384311,2.66086605 6.97365603,2.55919655 7.22128286,2.68140769 C7.31988916,2.73007281 7.39970292,2.80988657 7.44836804,2.90849288 L8.35312785,4.74173649 C8.42595885,4.88930822 8.56674165,4.99159291 8.72959673,5.01525714 L10.7527012,5.30923142 C11.0259736,5.34894023 11.2153143,5.60266166 11.1756055,5.87593409 C11.1597933,5.9847526 11.1085497,6.08532381 11.0298079,6.16207811 L9.56587573,7.58905925 C9.44803269,7.70392783 9.39425845,7.86942793 9.42207741,8.03162497 L9.76766491,10.0465547 C9.81434541,10.3187229 9.6315515,10.5772009 9.35938328,10.6238814 C9.25100446,10.6424698 9.13952042,10.6248125 9.04219018,10.5736429 L7.23267056,9.62232215 C7.08700855,9.5457431 6.91299145,9.5457431 6.76732944,9.62232215 Z" id="星形" fill="#FFFFFF"></path>
                                    </g>
                                </g>
                            </g>
                        </g>
                    </g>
                </g>
            </g>
        </g>
    </g>
</svg>