<?xml version="1.0" encoding="UTF-8"?>
<svg width="28px" height="23px" viewBox="0 0 28 23" version="1.1" xmlns="http://www.w3.org/2000/svg" xmlns:xlink="http://www.w3.org/1999/xlink">
    <title>btn_decorate1</title>
    <defs>
        <linearGradient x1="58.2073975%" y1="39.6570819%" x2="0%" y2="64.2222222%" id="linearGradient-1">
            <stop stop-color="#FFFFFF" offset="0%"></stop>
            <stop stop-color="#FFFFFF" stop-opacity="0" offset="100%"></stop>
        </linearGradient>
    </defs>
    <g id="H5版本（繁体）" stroke="none" stroke-width="1" fill="none" fill-rule="evenodd">
        <g id="H5推币机-奖励弹窗" transform="translate(-60.000000, -422.000000)" fill="url(#linearGradient-1)">
            <g id="编组-5" transform="translate(26.000000, 298.000000)">
                <g id="编组" transform="translate(34.000000, 124.000000)">
                    <path d="M11.1966129,5.7467035 C8.87245461,7.0264349 6.50768417,11.1434356 6.50768417,11.1434356 C5.87783871,12.5103474 5.68047763,13.6684165 6.82331939,13.5968505 C7.96544866,13.5246338 9.30565149,11.773217 11.5514353,9.95608945 C13.183761,8.63537021 15.7273677,7.86961329 16.4761998,7.54561418 C17.2250319,7.22161508 17.7765029,6.10648563 16.9093966,5.31470469 C16.0430029,4.52357435 13.9154932,4.25032209 11.1966129,5.7467035 M23.1449379,4.40757226 C22.2792567,3.92807961 21.4192754,3.93913982 20.7317178,4.09918757 C19.7584499,4.32559658 18.9526182,4.98920921 18.6113331,5.85190562 C18.4894965,6.1596397 18.8208066,6.97484227 19.6480131,6.82585473 C20.360508,6.69833701 20.2807086,6.18696493 22.9062521,6.6937828 C23.4242359,6.7939753 23.7092339,6.5766747 23.8652702,6.27414541 C24.2158177,5.59296657 23.8495953,4.79793263 23.1449379,4.40757226" id="形状结合"></path>
                </g>
            </g>
        </g>
    </g>
</svg>